<mxfile host="app.diagrams.net" modified="2023-02-16T08:06:22.017Z" agent="5.0 (Windows)" etag="51Cv872-gJr_5Qhs_aS2" version="20.8.20" type="github">
  <diagram name="第 1 页" id="urAhiurBt4oJohGIjufB">
    <mxGraphModel dx="855" dy="901" grid="1" gridSize="10" guides="1" tooltips="1" connect="1" arrows="1" fold="1" page="1" pageScale="1" pageWidth="827" pageHeight="1169" math="0" shadow="0">
      <root>
        <mxCell id="0" />
        <mxCell id="1" parent="0" />
      </root>
    </mxGraphModel>
  </diagram>
</mxfile>
